<?xml version="1.0" encoding="UTF-8"?><svg id="Layer_2" xmlns="http://www.w3.org/2000/svg" viewBox="0 0 155.91 22.61"><g id="Layer_1-2"><rect x="145.79" y="10.89" width="6.29" height="3.22" transform="translate(34.76 108.95) rotate(-44.99)"/><polygon points="145.54 3.08 151.22 8.75 151.21 8.76 153.08 10.63 155.28 8.43 147.74 .88 145.54 3.08"/><path d="M155.91,1.87c0,1.03-.84,1.87-1.87,1.87s-1.87-.84-1.87-1.87.84-1.87,1.87-1.87,1.87.84,1.87,1.87"/><rect x="145.79" y="10.89" width="6.29" height="3.22" transform="translate(34.76 108.95) rotate(-44.99)"/><polygon points="145.54 3.08 151.22 8.75 151.21 8.76 153.08 10.63 155.28 8.43 147.74 .88 145.54 3.08"/><path d="M155.91,1.87c0,1.03-.84,1.87-1.87,1.87s-1.87-.84-1.87-1.87.84-1.87,1.87-1.87,1.87.84,1.87,1.87"/><path d="M9.5,22.23v-7.65c0-1.88-.98-3.59-2.93-3.59s-3.04,1.71-3.04,3.59v7.65H0V7.93h3.27l.26,1.74c.75-1.45,2.4-1.97,3.76-1.97,1.71,0,3.42.69,4.23,2.66,1.27-2.03,2.92-2.61,4.78-2.61,4.05,0,6.05,2.49,6.05,6.78v7.7h-3.53v-7.7c0-1.88-.78-3.47-2.69-3.47s-3.1,1.65-3.1,3.53v7.65h-3.53Z"/><path d="M39.2,15.11c0,4.11-2.81,7.44-7.44,7.44s-7.41-3.33-7.41-7.44,2.84-7.44,7.38-7.44,7.47,3.36,7.47,7.44M27.88,15.11c0,2.17,1.3,4.2,3.88,4.2s3.88-2.03,3.88-4.2-1.51-4.23-3.88-4.23c-2.55,0-3.88,2.09-3.88,4.23"/><polygon points="54.9 7.93 48.82 22.29 45 22.29 38.89 7.93 42.74 7.93 44.71 12.65 46.91 18.67 49.08 12.71 51.05 7.93 54.9 7.93"/><path d="M58.97,16.36c.23,1.77,1.77,3.04,4.26,3.04,1.3,0,3.01-.49,3.82-1.33l2.26,2.23c-1.51,1.56-3.97,2.32-6.14,2.32-4.92,0-7.85-3.04-7.85-7.62s2.95-7.47,7.59-7.47,7.76,2.95,7.21,8.83h-11.15ZM66.73,13.43c-.23-1.85-1.68-2.78-3.71-2.78-1.91,0-3.47.93-4,2.78h7.7Z"/><path d="M82.16,22.23v-7.65c0-1.88-.99-3.59-2.93-3.59s-3.04,1.71-3.04,3.59v7.65h-3.53V7.93h3.27l.26,1.74c.75-1.45,2.4-1.97,3.77-1.97,1.71,0,3.42.69,4.23,2.66,1.27-2.03,2.93-2.61,4.78-2.61,4.06,0,6.05,2.49,6.05,6.78v7.7h-3.53v-7.7c0-1.88-.78-3.47-2.69-3.47s-3.1,1.65-3.1,3.53v7.65h-3.53Z"/><path d="M100.99,16.36c.23,1.77,1.77,3.04,4.26,3.04,1.3,0,3.01-.49,3.82-1.33l2.26,2.23c-1.51,1.56-3.97,2.32-6.14,2.32-4.92,0-7.85-3.04-7.85-7.62s2.95-7.47,7.59-7.47,7.76,2.95,7.21,8.83h-11.15ZM108.75,13.43c-.23-1.85-1.68-2.78-3.71-2.78-1.91,0-3.47.93-4,2.78h7.7Z"/><path d="M125.29,22.23v-7.47c0-2.17-1.19-3.82-3.45-3.82s-3.65,1.83-3.65,4v7.3h-3.5V7.93h3.16l.23,1.94c1.45-1.42,2.9-2.14,4.69-2.14,3.36,0,6.05,2.52,6.05,7.01v7.5h-3.53Z"/><path d="M136.02,3.93v4.06h3.94v3.04h-3.97v6.17c0,1.36.75,2.03,1.85,2.03.55,0,1.19-.17,1.71-.43l.98,3.01c-1.01.41-1.85.58-2.93.61-3.1.11-5.13-1.65-5.13-5.21v-6.17h-2.66v-3.04h2.66v-3.68l3.53-.38Z"/><path d="M9.5,22.23v-7.65c0-1.88-.98-3.59-2.93-3.59s-3.04,1.71-3.04,3.59v7.65H0V7.93h3.27l.26,1.74c.75-1.45,2.4-1.97,3.76-1.97,1.71,0,3.42.69,4.23,2.66,1.27-2.03,2.92-2.61,4.78-2.61,4.05,0,6.05,2.49,6.05,6.78v7.7h-3.53v-7.7c0-1.88-.78-3.47-2.69-3.47s-3.1,1.65-3.1,3.53v7.65h-3.53Z"/><path d="M39.2,15.11c0,4.11-2.81,7.44-7.44,7.44s-7.41-3.33-7.41-7.44,2.84-7.44,7.38-7.44,7.47,3.36,7.47,7.44M27.88,15.11c0,2.17,1.3,4.2,3.88,4.2s3.88-2.03,3.88-4.2-1.51-4.23-3.88-4.23c-2.55,0-3.88,2.09-3.88,4.23"/><polygon points="54.9 7.93 48.82 22.29 45 22.29 38.89 7.93 42.74 7.93 44.71 12.65 46.91 18.67 49.08 12.71 51.05 7.93 54.9 7.93"/><path d="M58.97,16.36c.23,1.77,1.77,3.04,4.26,3.04,1.3,0,3.01-.49,3.82-1.33l2.26,2.23c-1.51,1.56-3.97,2.32-6.14,2.32-4.92,0-7.85-3.04-7.85-7.62s2.95-7.47,7.59-7.47,7.76,2.95,7.21,8.83h-11.15ZM66.73,13.43c-.23-1.85-1.68-2.78-3.71-2.78-1.91,0-3.47.93-4,2.78h7.7Z"/><path d="M82.16,22.23v-7.65c0-1.88-.99-3.59-2.93-3.59s-3.04,1.71-3.04,3.59v7.65h-3.53V7.93h3.27l.26,1.74c.75-1.45,2.4-1.97,3.77-1.97,1.71,0,3.42.69,4.23,2.66,1.27-2.03,2.93-2.61,4.78-2.61,4.06,0,6.05,2.49,6.05,6.78v7.7h-3.53v-7.7c0-1.88-.78-3.47-2.69-3.47s-3.1,1.65-3.1,3.53v7.65h-3.53Z"/><path d="M100.99,16.36c.23,1.77,1.77,3.04,4.26,3.04,1.3,0,3.01-.49,3.82-1.33l2.26,2.23c-1.51,1.56-3.97,2.32-6.14,2.32-4.92,0-7.85-3.04-7.85-7.62s2.95-7.47,7.59-7.47,7.76,2.95,7.21,8.83h-11.15ZM108.75,13.43c-.23-1.85-1.68-2.78-3.71-2.78-1.91,0-3.47.93-4,2.78h7.7Z"/><path d="M125.29,22.23v-7.47c0-2.17-1.19-3.82-3.45-3.82s-3.65,1.83-3.65,4v7.3h-3.5V7.93h3.16l.23,1.94c1.45-1.42,2.9-2.14,4.69-2.14,3.36,0,6.05,2.52,6.05,7.01v7.5h-3.53Z"/><path d="M136.02,3.93v4.06h3.94v3.04h-3.97v6.17c0,1.36.75,2.03,1.85,2.03.55,0,1.19-.17,1.71-.43l.98,3.01c-1.01.41-1.85.58-2.93.61-3.1.11-5.13-1.65-5.13-5.21v-6.17h-2.66v-3.04h2.66v-3.68l3.53-.38Z"/><path d="M9.5,22.23v-7.65c0-1.88-.98-3.59-2.93-3.59s-3.04,1.71-3.04,3.59v7.65H0V7.93h3.27l.26,1.74c.75-1.45,2.4-1.97,3.76-1.97,1.71,0,3.42.69,4.23,2.66,1.27-2.03,2.92-2.61,4.78-2.61,4.05,0,6.05,2.49,6.05,6.78v7.7h-3.53v-7.7c0-1.88-.78-3.47-2.69-3.47s-3.1,1.65-3.1,3.53v7.65h-3.53Z"/><path d="M39.2,15.11c0,4.11-2.81,7.44-7.44,7.44s-7.41-3.33-7.41-7.44,2.84-7.44,7.38-7.44,7.47,3.36,7.47,7.44M27.88,15.11c0,2.17,1.3,4.2,3.88,4.2s3.88-2.03,3.88-4.2-1.51-4.23-3.88-4.23c-2.55,0-3.88,2.09-3.88,4.23"/><polygon points="54.9 7.93 48.82 22.29 45 22.29 38.89 7.93 42.74 7.93 44.71 12.65 46.91 18.67 49.08 12.71 51.05 7.93 54.9 7.93"/><path d="M58.97,16.36c.23,1.77,1.77,3.04,4.26,3.04,1.3,0,3.01-.49,3.82-1.33l2.26,2.23c-1.51,1.56-3.97,2.32-6.14,2.32-4.92,0-7.85-3.04-7.85-7.62s2.95-7.47,7.59-7.47,7.76,2.95,7.21,8.83h-11.15ZM66.73,13.43c-.23-1.85-1.68-2.78-3.71-2.78-1.91,0-3.47.93-4,2.78h7.7Z"/><path d="M82.16,22.23v-7.65c0-1.88-.99-3.59-2.93-3.59s-3.04,1.71-3.04,3.59v7.65h-3.53V7.93h3.27l.26,1.74c.75-1.45,2.4-1.97,3.77-1.97,1.71,0,3.42.69,4.23,2.66,1.27-2.03,2.93-2.61,4.78-2.61,4.06,0,6.05,2.49,6.05,6.78v7.7h-3.53v-7.7c0-1.88-.78-3.47-2.69-3.47s-3.1,1.65-3.1,3.53v7.65h-3.53Z"/><path d="M100.99,16.36c.23,1.77,1.77,3.04,4.26,3.04,1.3,0,3.01-.49,3.82-1.33l2.26,2.23c-1.51,1.56-3.97,2.32-6.14,2.32-4.92,0-7.85-3.04-7.85-7.62s2.95-7.47,7.59-7.47,7.76,2.95,7.21,8.83h-11.15ZM108.75,13.43c-.23-1.85-1.68-2.78-3.71-2.78-1.91,0-3.47.93-4,2.78h7.7Z"/><path d="M125.29,22.23v-7.47c0-2.17-1.19-3.82-3.45-3.82s-3.65,1.83-3.65,4v7.3h-3.5V7.93h3.16l.23,1.94c1.45-1.42,2.9-2.14,4.69-2.14,3.36,0,6.05,2.52,6.05,7.01v7.5h-3.53Z"/><path d="M136.02,3.93v4.06h3.94v3.04h-3.97v6.17c0,1.36.75,2.03,1.85,2.03.55,0,1.19-.17,1.71-.43l.98,3.01c-1.01.41-1.85.58-2.93.61-3.1.11-5.13-1.65-5.13-5.21v-6.17h-2.66v-3.04h2.66v-3.68l3.53-.38Z"/><rect x="145.79" y="10.89" width="6.29" height="3.22" transform="translate(34.76 108.95) rotate(-44.99)"/><polygon points="145.54 3.08 151.22 8.75 151.21 8.76 153.08 10.63 155.28 8.43 147.74 .88 145.54 3.08"/><path d="M155.91,1.87c0,1.03-.84,1.87-1.87,1.87s-1.87-.84-1.87-1.87.84-1.87,1.87-1.87,1.87.84,1.87,1.87"/></g></svg>